<?xml version="1.0" encoding="utf-8"?>
<!-- Generator: Adobe Illustrator 17.0.0, SVG Export Plug-In . SVG Version: 6.00 Build 0)  -->
<!DOCTYPE svg PUBLIC "-//W3C//DTD SVG 1.1//EN" "http://www.w3.org/Graphics/SVG/1.1/DTD/svg11.dtd">
<svg version="1.1" id="Layer_1" xmlns="http://www.w3.org/2000/svg" xmlns:xlink="http://www.w3.org/1999/xlink" x="0px" y="0px"
	 width="330.909px" height="330.909px" viewBox="0 0 330.909 330.909" enable-background="new 0 0 330.909 330.909"
	 xml:space="preserve">
<g id="book-1">
	<path id="label_3_" fill="#EDEDED" d="M165.454,0C74.079,0,0,74.075,0,165.455c0,91.379,74.079,165.454,165.454,165.454
		c91.379,0,165.455-74.075,165.455-165.454C330.909,74.075,256.834,0,165.454,0z"/>
	<g id="icon">
		<path fill="#364A5E" d="M218.074,88.842l-46.481,29.376c-3.684-0.088-8.38-0.353-12.505,0.172l-57.492-36.021l-2.608,4.163
			l0.226,0.226l47.17,29.548l5.933,3.987c-0.169,0.215-0.383,0.306-0.594,0.398l-28.258-14.883L90.663,88.704l-4.994-2.474
			l-2.168,4.382l63.095,32.984l5.128,2.953c0.211,0.345,0.908,0.26,1.038-0.13c0.421-1.13,1.739-1.429,2.689-1.953
			c6.511-1.995,15.535-2.306,21.651,1.038c0.448,0.475,0.866,1.134,1.26,1.432c0.349-0.215,0.349-0.563,0.651-0.827l36.101-19.261
			l28.863-15.105l2.823-1.651l-2.179-4.29L220.33,98.513L178.584,120.6c-0.176-0.176-0.617-0.176-0.529-0.521l21.869-13.972
			l31.467-19.793c-0.609-1.516-1.689-2.819-2.512-4.251C225.275,84.368,221.628,86.444,218.074,88.842z M252.176,207.954
			l0.134-108.181l-0.1-7.288l-10.536,5.293l-58.622,29.9v1.467l0.123,116.431L252.176,207.954z M147.852,127.762L78.599,92.871
			l0.215,117.817l27.817,14.063l19.881,10.195l21.566,10.628L147.852,127.762z M151.805,127.888l0.13,21.046v90.18l0.176,6.986
			l0.521,0.735c6.587,2.651,14.921,2.256,22.091,1.214c1.643-0.437,4.251-0.483,4.458-2.474l-0.169-116.94l-2.087,1.034
			c-6.936,1.773-15.14,1.521-22.21,0.176C153.632,129.497,152.111,129.06,151.805,127.888z"/>
	</g>
</g>
</svg>
